<svg width="331" height="175" viewBox="0 0 331 175" fill="none" xmlns="http://www.w3.org/2000/svg">
<mask id="mask0_692_4640" style="mask-type:luminance" maskUnits="userSpaceOnUse" x="0" y="0" width="331" height="171">
<path d="M0 0.193359H330.715V170.587H0V0.193359Z" fill="white"/>
</mask>
<g mask="url(#mask0_692_4640)">
<mask id="mask1_692_4640" style="mask-type:luminance" maskUnits="userSpaceOnUse" x="0" y="0" width="331" height="171">
<path d="M330.719 170.587H0C0 76.4798 74.0333 0.193359 165.359 0.193359C256.686 0.193359 330.719 76.4798 330.719 170.587Z" fill="white"/>
</mask>
<g mask="url(#mask1_692_4640)">
<path d="M0 0.193359V170.587H330.715V0.193359H0Z" fill="url(#paint0_linear_692_4640)"/>
</g>
</g>
<mask id="mask2_692_4640" style="mask-type:luminance" maskUnits="userSpaceOnUse" x="0" y="22" width="331" height="153">
<path d="M0 22.6875H330.88V174.348H0V22.6875Z" fill="white"/>
</mask>
<g mask="url(#mask2_692_4640)">
<path d="M113.532 23.3338C115.001 22.6791 116.662 22.7805 118.212 23.0381C121.841 23.6844 125.069 25.6697 127.902 27.9465C130.753 30.2486 133.277 32.9224 135.632 35.7187C139.482 40.3314 142.887 45.2904 146.084 50.372C149.727 56.1758 153.094 62.1486 156.325 68.189C160.722 76.4217 164.877 84.7727 168.93 93.1785C170.734 91.5523 172.526 89.9133 174.287 88.2491C174.745 80.5317 175.19 72.8144 175.668 65.097C175.304 64.9618 174.91 64.8098 174.711 64.4507C174.304 63.8045 174.635 62.8625 175.359 62.6175C176.214 62.2331 177.248 63.1033 177.04 64.0114C176.968 64.6197 176.401 64.9787 175.846 65.1055C175.986 66.4952 176.007 67.8891 176.054 69.2831C177.578 69.3126 179.141 69.3802 180.573 69.942C180.899 70.0561 181.161 70.2884 181.403 70.5292C181.411 71.7584 182.673 72.3328 183.681 72.6454C186.04 73.2706 188.565 73.4649 190.958 72.9369C189.463 74.7236 187.057 75.3784 184.816 75.522C183.791 75.5431 182.703 75.5769 181.763 75.1291C181.343 74.9771 181.492 74.4111 181.174 74.1703C180.831 73.9211 180.378 73.9253 179.975 73.8957C178.73 73.9126 177.494 74.0985 176.265 74.2674C176.452 78.935 176.655 83.6026 176.854 88.2702C181.327 93.1785 186.269 97.6729 191.593 101.66C193.681 97.4786 195.866 93.3306 198.369 89.3769C199.962 86.9143 201.677 84.4854 203.867 82.5086C205.146 81.3807 206.683 80.3754 208.441 80.2867C209.563 80.2656 210.673 80.5233 211.753 80.802C215.12 81.7947 218.271 83.3618 221.393 84.9416C224.671 86.6312 227.907 88.4011 231.134 90.1879C231.401 85.495 231.71 80.8063 231.947 76.1133C231.003 75.9571 230.634 74.6265 231.451 74.0858C232.188 73.4606 233.4 74.2843 233.188 75.1841C233.086 75.674 232.663 75.9866 232.197 76.1176C232.227 77.3257 232.235 78.5337 232.337 79.7376C233.548 79.7925 234.78 79.8474 235.945 80.2065C236.297 80.3374 236.682 80.481 236.907 80.7978C237.059 81.1949 237.11 81.668 237.483 81.9341C238.228 82.5212 239.177 82.762 240.092 82.9394C241.862 83.2267 243.687 83.328 245.453 82.9563C244.407 84.2447 242.743 84.8191 241.155 85.081C239.926 85.2415 238.639 85.3218 237.449 84.9247C236.843 84.8233 237.089 83.9236 236.449 83.8687C235.149 83.5984 233.827 84.0123 232.523 84.0715C232.578 86.4116 232.705 88.7475 232.794 91.0876C235.136 92.3717 237.483 93.6389 239.85 94.8724C246.173 98.1291 252.62 101.306 259.527 103.135C263.038 104.005 266.799 104.537 270.34 103.523C264.559 100.689 259.176 96.9295 254.852 92.1394C250.714 87.5732 247.664 81.9975 246.212 76.0035C244.081 67.3696 245.187 58.1147 248.664 49.9834C251.036 44.471 254.479 39.3303 259.087 35.4357C261.7 33.2434 264.745 31.4609 268.112 30.7512C271.607 30.105 275.249 30.6414 278.548 31.896C281.602 33.0618 284.376 34.8824 286.799 37.062C291.152 41.0115 294.401 46.0634 296.599 51.4829C299.657 59.082 300.695 67.5385 299.195 75.6107C297.997 82.1495 294.994 88.3673 290.504 93.2926C286.375 97.8968 281.051 101.31 275.38 103.734C280.695 105.901 286.227 107.523 291.843 108.693C300.123 110.438 308.572 111.295 317.022 111.655C321.549 111.878 326.081 111.823 330.609 111.815V118.117C329.211 121.412 327.957 124.77 326.619 128.09C325.12 131.879 323.616 135.668 322.121 139.461C324.95 139.44 327.78 139.474 330.609 139.445V174.525H0.118504C0.0930913 162.833 0.135445 151.145 0.101562 139.453C4.375 139.457 8.64843 139.453 12.9261 139.453C16.5219 133.784 20.1558 128.133 23.7685 122.472C22.8367 121.653 21.96 120.77 21.1257 119.853C19.6348 120.5 18.1144 121.074 16.6151 121.695C14.832 120.985 13.0532 120.272 11.2701 119.558C11.1939 118.151 11.0753 116.749 10.9736 115.346C10.9736 115.106 11.2659 114.962 11.2108 114.709C11.2193 113.513 11.2066 112.313 11.2108 111.118C10.9609 111.143 10.711 111.169 10.4611 111.194C10.7195 110.603 11.016 110.032 11.3336 109.471C12.2569 109.023 13.1929 108.592 14.0527 108.03C11.5581 101.166 11.3887 93.5249 13.3835 86.513C12.5576 86.1793 11.7063 85.8963 10.9143 85.5034C10.7534 84.0503 10.7491 82.5846 10.5797 81.1315C10.6517 81.0935 10.7873 81.0132 10.855 80.9752C10.8296 79.67 10.855 78.369 10.8423 77.068C10.656 77.0976 10.2748 77.1482 10.0884 77.1736C10.3044 76.578 10.6771 76.0542 10.8974 75.4544C12.7821 74.6518 14.5652 73.562 16.0052 72.092C16.0391 71.4078 16.0814 70.7277 16.128 70.0434C16.0602 69.942 15.9247 69.7393 15.8569 69.6379C15.9882 69.4985 16.1322 69.3802 16.2889 69.2746C16.4584 69.3675 16.6024 69.49 16.7252 69.6463C16.6151 69.8364 16.5049 70.0265 16.3948 70.2208C16.7972 70.2419 17.1995 70.2715 17.5977 70.356C17.6061 70.4827 17.6231 70.7446 17.6273 70.8755C18.1144 71.1205 18.6607 71.0276 19.1817 70.9642C18.8217 71.4584 18.2584 71.7119 17.6654 71.7837C17.6061 71.6823 17.4918 71.4838 17.4325 71.3824C17.1487 71.3951 16.8692 71.412 16.5896 71.4331C16.6066 71.6527 16.6235 71.8724 16.6405 72.0963C17.5002 73.0425 18.5167 73.8366 19.6179 74.4829C24.9332 67.7624 32.7643 63.0653 41.235 61.646C41.2222 60.8856 41.2222 60.1295 41.235 59.3692C40.9851 59.3903 40.7309 59.4114 40.4811 59.4368C40.7225 58.8496 41.0867 58.3259 41.3027 57.7303C43.1917 56.9277 44.9874 55.8506 46.4105 54.3595C46.419 53.6836 46.474 53.0162 46.5418 52.3446C46.4698 52.2432 46.33 52.0405 46.2538 51.9391C46.3766 51.8166 46.4995 51.6983 46.6265 51.58C46.8595 51.5885 46.9865 51.787 47.1178 51.9475C46.9992 52.1292 46.8849 52.315 46.7663 52.4967C47.1856 52.5051 47.6049 52.5474 48.0115 52.6487C48.0199 52.7797 48.0326 53.0373 48.0369 53.1683C48.5324 53.4133 49.0915 53.3246 49.6209 53.2443C49.2185 53.709 48.6849 54.0216 48.0665 54.0638C48.0157 53.9666 47.914 53.7766 47.8632 53.6794C47.5752 53.6794 47.283 53.6836 46.995 53.6921C47.0162 53.9286 47.0373 54.1652 47.0585 54.4017C48.4308 55.9097 50.1969 57.0333 52.1282 57.688C52.3357 58.2541 52.5644 58.8159 52.7804 59.3819C52.5178 59.3988 52.2552 59.4157 51.9927 59.441C52.0011 60.1042 51.9969 60.7674 52.0011 61.4305C60.8995 62.5753 69.2389 67.3104 74.8337 74.297C81.0766 63.7495 87.5354 53.3161 94.6296 43.3094C98.3863 38.08 102.279 32.9097 106.827 28.3309C108.835 26.3962 110.944 24.449 113.54 23.3338M116.526 24.808C116.547 30.2528 116.522 35.6976 116.539 41.1424C116.594 60.2225 116.577 79.2983 116.581 98.3783C117.377 97.7278 118.072 96.9717 118.856 96.3043C119.118 92.8786 119.254 89.4402 119.487 86.0103C119.669 82.7029 119.923 79.3997 120.033 76.088C119.461 75.9697 118.991 75.4206 119.122 74.8208C119.169 73.883 120.541 73.5325 121.062 74.3055C121.625 74.9433 121.134 76.0077 120.313 76.0965C120.321 77.313 120.376 78.5337 120.44 79.7503C121.863 79.8178 123.383 79.8178 124.675 80.4895C125.293 80.7725 125.039 81.63 125.615 81.9763C126.907 82.9563 128.614 83.1168 130.177 83.2689C133.62 70.6094 137.059 57.9457 140.507 45.2862C139.621 44.0021 138.723 42.7264 137.796 41.4719C134.293 36.779 130.503 32.1959 125.797 28.6434C123.095 26.6455 119.957 24.9474 116.526 24.808ZM108.526 28.9983C103.481 33.9108 99.3647 39.664 95.3369 45.4129C95.0574 45.6664 95.2056 46.0296 95.2691 46.338C98.1068 58.7525 100.919 71.167 103.761 83.5772C105.379 90.8257 107.094 98.0489 108.678 105.306C110.749 103.654 112.727 101.889 114.692 100.119C114.62 75.0616 114.62 50.0045 114.62 24.9474C112.236 25.657 110.326 27.3551 108.526 28.9983ZM263.991 34.3417C261.086 35.9511 258.596 38.232 256.478 40.7707C254.153 43.567 252.26 46.7055 250.773 50.0129C247.584 57.1558 246.267 65.2153 247.575 72.958C248.749 80.2529 252.412 87.0621 257.647 92.2619C261.992 96.6718 267.299 100.026 272.894 102.628C279.62 100.085 285.913 96.0635 290.42 90.4033C295.269 84.3883 297.836 76.6794 297.912 68.9916C298.094 61.1011 295.96 53.181 291.919 46.4014C289.031 41.6028 285.079 37.2943 280.06 34.6881C277.011 33.1125 273.559 32.2381 270.116 32.424C267.956 32.5718 265.876 33.311 263.991 34.3417ZM79.5942 70.3475C79.8526 70.4193 80.3735 70.2715 80.4032 70.677C80.509 71.4078 81.4959 71.1332 81.9872 71.0107C81.6822 71.5598 81.0596 71.8175 80.4624 71.8724C80.4116 71.7837 80.3142 71.6021 80.2634 71.5091C79.9712 71.5007 79.6747 71.5049 79.3824 71.526C79.3909 71.7457 79.4036 71.9653 79.4163 72.1892C80.7843 73.7225 82.5801 74.8292 84.5114 75.5135C84.6893 76.0965 85.0535 76.6329 85.1086 77.2538C84.8714 77.2496 84.6342 77.2412 84.3971 77.2327C84.3971 78.4366 84.4013 79.6447 84.3971 80.8527C84.2869 81.1526 84.7528 81.2076 84.6385 81.5032C84.5114 82.8761 84.4352 84.2573 84.2996 85.6301C83.2959 86.0525 82.2836 86.4369 81.2841 86.8636C82.0295 89.3515 82.3641 91.9409 82.5589 94.526C85.7185 79.7334 88.9543 64.9534 92.135 50.165C87.7768 56.7799 83.6135 63.5257 79.5942 70.3475ZM144.246 51.1281C145.61 55.5718 146.817 60.0619 148.13 64.5225C151.658 76.8821 155.233 89.2333 158.752 101.597C158.778 101.601 158.824 101.606 158.85 101.61C161.814 99.371 164.631 96.9548 167.443 94.5344C165.283 90.0232 163.06 85.5414 160.823 81.0639C155.703 70.9009 150.379 60.8265 144.365 51.1534C144.331 51.1492 144.276 51.1365 144.246 51.1281ZM142.565 52.4333C142.544 72.185 142.561 91.9535 142.565 111.714C147.681 109.268 152.501 106.252 157.1 102.953C155.932 98.6698 154.657 94.4119 153.45 90.1414C151.573 83.611 149.71 77.0849 147.829 70.5587C146.11 64.4592 144.293 58.3892 142.62 52.2812L142.565 52.4333ZM132.205 83.2731C132.586 83.2351 132.963 83.1548 133.34 83.0704C132.963 83.5857 132.409 83.9067 131.926 84.2996C130.308 90.285 128.626 96.2579 127.072 102.26C131.261 106.062 135.784 109.504 140.642 112.411C140.608 110.831 140.634 109.251 140.625 107.675C140.634 89.2544 140.621 70.8375 140.566 52.4206C137.813 62.7147 134.975 72.9833 132.205 83.2731ZM95.1082 54.2919C95.0277 55.0691 95.087 55.8463 95.0743 56.6193C95.015 66.246 95.0446 75.8726 95.0362 85.4992C95.0531 95.261 94.9896 105.027 94.9515 114.789C99.2037 112.428 103.248 109.69 107.035 106.636C106.4 104.009 105.836 101.361 105.214 98.7289C101.855 83.9152 98.4541 69.1099 95.1082 54.2919ZM93.126 54.9382C92.1562 59.0862 91.3176 63.268 90.39 67.4287C88.7213 75.1714 87.0399 82.9098 85.3712 90.6568C83.9312 97.1871 82.5801 103.739 81.0977 110.261C81.6568 110.586 82.2709 110.801 82.8681 111.046C83.1646 111.591 83.4102 112.195 83.5288 112.816C83.2874 112.812 83.0418 112.808 82.8003 112.803C82.8342 114.104 82.7749 115.405 82.83 116.702L83.0714 116.821C82.9316 118.269 82.8342 119.727 82.7241 121.184C81.2629 121.771 79.7975 122.341 78.3533 122.958C77.8027 125.784 77.1631 128.589 76.5448 131.398C77.9594 133.603 79.3697 135.816 80.7843 138.021C80.958 138.283 81.085 138.596 81.3519 138.786C81.8516 135.749 82.3641 132.707 82.8512 129.666C81.5763 130.012 80.2507 130.101 78.9377 130.152C80.8097 127.005 83.1942 123.832 83.2535 120.018C86.6079 118.827 89.8945 117.433 93.0498 115.786C93.0202 104.545 93.0498 93.3052 93.0922 82.0608C93.1345 73.3508 93.0837 64.6408 93.1218 55.935C93.0371 55.5971 93.3293 55.2423 93.126 54.9382ZM41.5695 59.2594C41.5695 60.6237 41.578 61.9881 41.5653 63.3525C44.9409 63.3314 48.3164 63.344 51.6919 63.3483C51.6581 61.9881 51.7258 60.628 51.6665 59.2678C51.5437 59.1876 51.2981 59.0228 51.1795 58.9426C51.0228 59.0862 50.8618 59.234 50.7051 59.3777C50.5103 59.3734 50.3197 59.3692 50.1291 59.3692C49.9766 59.2298 49.8284 59.0946 49.6759 58.9552C49.4981 59.0989 49.3244 59.2425 49.1508 59.3819C48.7653 59.4368 48.4646 59.2087 48.1766 58.9933C47.9395 59.1242 47.7362 59.327 47.4651 59.3777C47.1856 59.327 46.9738 59.1327 46.7663 58.9552C46.4995 59.12 46.2665 59.4283 45.9234 59.3692C45.6227 59.3903 45.4237 59.1158 45.1992 58.9637C44.9578 59.158 44.7164 59.4452 44.3691 59.3692C44.0938 59.3608 43.9159 59.1031 43.7084 58.9595C43.4585 59.158 43.2128 59.4114 42.8698 59.4199C42.5606 59.3861 42.3615 59.1369 42.1328 58.9595C41.9465 59.0608 41.7601 59.158 41.5695 59.2594ZM51.9672 67.7751C50.6458 68.3707 49.2736 68.8395 47.9564 69.4436C47.9903 76.4977 47.9691 83.5561 47.9649 90.6103C48.5155 90.6821 49.0491 90.8299 49.5658 91.0285C53.8054 83.742 57.9941 76.4259 62.2591 69.1563C59.1038 67.4202 55.6435 66.2417 52.0816 65.6968C52.0435 66.3896 51.9545 67.0823 51.9672 67.7751ZM32.3577 69.1563C36.6058 76.4386 40.8072 83.742 45.0425 91.0327C45.5507 90.8215 46.0844 90.6863 46.635 90.623C46.635 83.7335 46.6223 76.8441 46.6392 69.9589C44.8561 69.2197 43.0561 68.5312 41.2731 67.792C41.2561 67.171 41.2265 66.5543 41.1672 65.9376C38.0924 66.5585 35.098 67.6272 32.3577 69.1563ZM21.6678 78.8252C21.5788 79.4504 21.6593 80.0882 21.6212 80.7176C28.6349 84.7769 35.674 88.8024 42.6877 92.8575C43.0561 92.4393 43.45 92.0465 43.8863 91.6959C39.6255 84.4178 35.4283 77.1018 31.1888 69.8111C27.4321 72.1132 24.1412 75.1841 21.6678 78.8252ZM63.4068 69.8153C59.1885 77.1144 54.9701 84.4136 50.7263 91.6959C51.1668 92.0465 51.5522 92.4478 51.9334 92.8575C59.1249 88.6757 66.3546 84.5615 73.5546 80.3923C73.7114 80.236 73.6394 79.9234 73.5504 79.7376C70.9965 75.7078 67.4897 72.2948 63.4068 69.8153ZM78.1118 72.8017C78.5057 72.5398 78.9589 72.2061 78.8657 71.6654C78.5735 72.016 78.3321 72.4004 78.1118 72.8017ZM11.1557 77.0046C11.1642 78.3563 11.1727 79.708 11.1515 81.0597C14.5355 81.0808 17.9153 81.0555 21.2951 81.0724C21.2485 79.7334 21.3163 78.3986 21.2824 77.0595C21.1426 76.8906 20.9478 76.7892 20.7826 76.654C20.537 76.8695 20.2659 77.2327 19.8847 77.1018C19.6221 77.068 19.4654 76.8399 19.2833 76.6751C19.0504 76.8399 18.8386 77.106 18.5294 77.1102C18.2075 77.1187 18 76.8441 17.7713 76.6709C17.5722 76.8061 17.4028 77.0426 17.1487 77.068C16.8099 77.1356 16.5896 76.8314 16.3482 76.6625C16.1111 76.8399 15.9035 77.1102 15.5816 77.106C15.2555 77.1398 15.0311 76.8441 14.7896 76.6794C14.5694 76.8568 14.3619 77.1313 14.0485 77.106C13.7266 77.1102 13.519 76.8357 13.2734 76.6709C13.0659 76.8863 12.8329 77.1187 12.511 77.1313C12.1722 77.1313 11.9562 76.8568 11.719 76.6625C11.5327 76.7765 11.3463 76.8906 11.1557 77.0046ZM81.2206 77.1947C80.941 77.1736 80.7547 76.9328 80.5472 76.7808C80.3439 76.9793 80.094 77.1187 79.8356 77.2327C79.5857 77.1102 79.3528 76.9539 79.141 76.7723C78.7514 77.275 77.9933 77.3552 77.6121 76.7892C77.3495 76.9751 77.0954 77.2665 76.7396 77.1905C76.4643 77.1651 76.2864 76.9201 76.0874 76.7639C75.6977 77.0384 75.4224 77.4144 75.1683 77.8072C74.9523 77.4566 74.7194 77.1187 74.4695 76.7892C74.3382 76.8695 74.0798 77.03 73.9485 77.1102C73.9655 78.4704 73.9401 79.8305 73.957 81.1907C77.3283 81.1653 80.6954 81.1695 84.0625 81.1864C84.0709 79.8432 84.0582 78.4957 84.0667 77.1525C83.9015 77.0215 83.7406 76.8863 83.5754 76.7554C83.3509 76.9539 83.1307 77.2496 82.8003 77.2243C82.4785 77.2412 82.2794 76.9455 82.0549 76.7639C81.8177 76.9708 81.5679 77.2623 81.2206 77.1947ZM52.6237 93.9895C52.988 94.526 53.3225 95.0793 53.6868 95.6242C61.9033 95.6116 70.124 95.6074 78.3406 95.6242C78.294 92.6716 77.8069 89.7317 76.9048 86.9185C75.8375 86.4876 74.7617 86.0779 73.7029 85.6259C73.5843 84.4263 73.5165 83.214 73.4742 82.0059C66.5156 85.985 59.5823 90.0105 52.6237 93.9895ZM209.983 82.3438C212.719 90.6272 215.467 98.9106 218.229 107.19C221.367 104.807 224.306 102.176 227.242 99.5526C227.284 96.4648 227.267 93.3771 227.292 90.285C224.866 88.9502 222.43 87.6366 219.965 86.3778C216.751 84.7853 213.511 83.1295 209.983 82.3438ZM21.5153 85.5372C20.2193 86.0314 18.9487 86.589 17.6485 87.0748C16.7845 89.8331 16.2932 92.7265 16.272 95.62C24.4927 95.6116 32.7135 95.6116 40.9342 95.6158C41.2773 95.0709 41.6373 94.5302 41.9804 93.9811C35.225 90.1372 28.4994 86.2426 21.7694 82.3607C21.6678 83.421 21.6339 84.4812 21.5153 85.5372ZM203.469 85.5414C201.368 88.0041 199.682 90.7835 198.064 93.5714C196.345 96.6 194.719 99.6836 193.181 102.814C195.655 104.554 198.192 106.197 200.822 107.697C202.948 99.2865 205.116 90.8806 207.259 82.4748C205.747 83.1422 204.54 84.3165 203.469 85.5414ZM120.605 84.0757C120.753 88.1477 120.956 92.2197 121.075 96.2959C122.506 97.7954 123.942 99.2992 125.458 100.718C126.81 95.4849 128.275 90.2808 129.69 85.0683C128.296 85.2626 126.801 85.4147 125.458 84.9036C124.921 84.798 125.196 84.0292 124.679 83.9152C123.341 83.5477 121.956 84.0166 120.605 84.0757ZM208.492 85.495C206.514 93.225 204.561 100.959 202.558 108.677C205.146 110.109 207.801 111.405 210.491 112.635C212.524 111.367 214.506 110.016 216.416 108.575C216.687 108.448 216.45 108.182 216.425 107.992C213.866 100.266 211.274 92.5449 208.746 84.8064C208.564 84.9881 208.572 85.2669 208.492 85.495ZM229.232 91.3199C229.241 93.4489 229.241 95.582 229.232 97.7109C229.618 97.3265 230.028 96.9717 230.431 96.6C230.596 96.431 230.825 96.2621 230.799 95.9917C230.846 94.7752 230.922 93.5545 231.024 92.3422C230.431 91.9916 229.808 91.6917 229.232 91.3199ZM232.849 93.3348C232.951 94.3275 232.887 95.337 233.031 96.3254C235.53 99.0542 238.207 101.618 240.985 104.064C241.714 102.294 242.328 100.473 243.077 98.7078C239.643 96.9675 236.229 95.1807 232.849 93.3348ZM16.2551 96.9717C16.2635 99.4301 16.6532 101.88 17.2631 104.258C17.5002 104.305 17.7417 104.355 17.9788 104.406C17.9788 104.529 17.9831 104.769 17.9831 104.892C18.4532 105.154 19.0038 105.09 19.5078 104.964C19.2283 105.5 18.6311 105.749 18.0551 105.796C17.9449 105.593 17.7882 105.454 17.5807 105.382C17.7967 106.032 17.9958 106.695 18.2795 107.321C19.3807 108.296 20.7403 108.934 22.104 109.462C22.1506 109.619 22.2014 109.779 22.2523 109.94C27.2245 107 32.2688 104.17 37.258 101.263C38.2745 99.8948 39.0792 98.3614 40.0787 96.9759C32.1375 96.9759 24.1963 96.9802 16.2551 96.9717ZM54.4745 96.9717C55.4783 98.353 56.2957 99.8694 57.291 101.255C62.6233 104.338 67.964 107.422 73.3175 110.476C74.101 110.172 74.8337 109.686 75.5029 109.171C77.2944 105.365 78.2262 101.17 78.3279 96.9717C70.3739 96.9802 62.4242 96.9802 54.4745 96.9717ZM41.5611 100.427C37.1818 107.245 32.8363 114.083 28.457 120.901C29.3252 121.573 30.2443 122.164 31.1634 122.76C35.4961 115.283 39.8246 107.802 44.1573 100.326C43.8185 100.038 43.5051 99.73 43.2213 99.3879C42.6792 99.7511 42.0354 99.9792 41.5611 100.427ZM51.3362 99.3921C51.0439 99.7343 50.7263 100.051 50.3832 100.338C54.771 107.785 59.0275 115.313 63.4195 122.755C64.3132 122.143 65.2407 121.568 66.1005 120.901C61.7339 114.075 57.38 107.236 52.9964 100.414C52.5136 99.9835 51.8783 99.7511 51.3362 99.3921ZM246.406 100.275C248.321 104.06 250.218 107.853 252.128 111.646C252.293 111.938 252.37 112.322 252.692 112.499C253.272 112.867 253.877 113.192 254.462 113.551C255.478 110.556 256.503 107.566 257.503 104.567C253.687 103.464 250.006 101.935 246.406 100.275ZM32.345 123.427C35.2759 125.011 38.4524 126.16 41.7432 126.734C41.7474 126.232 41.7474 125.729 41.739 125.226C41.4933 125.269 41.2477 125.307 41.002 125.349C41.1926 124.72 41.578 124.153 41.866 123.583C43.5983 122.831 45.2458 121.851 46.6138 120.546C46.6265 114.142 46.6096 107.735 46.618 101.331C46.1776 101.276 45.7498 101.145 45.3305 100.993C41.0147 108.478 36.6735 115.946 32.345 123.427ZM47.9522 101.339C47.9606 107.017 47.9649 112.694 47.9479 118.371C48.13 118.43 48.3079 118.489 48.4943 118.544C48.5028 118.654 48.5155 118.869 48.5239 118.979C48.9602 119.347 49.5531 119.173 50.0656 119.102C49.7691 119.625 49.1508 119.891 48.5663 119.913C48.435 119.663 48.2698 119.444 47.9564 119.503C47.9564 119.908 47.9564 120.31 47.9649 120.715C49.2821 121.982 50.8703 122.975 52.611 123.549C52.8228 124.128 53.1108 124.682 53.2463 125.286C53.0007 125.315 52.7508 125.324 52.5009 125.315C52.5305 125.801 52.5263 126.287 52.5094 126.772C55.9188 126.253 59.2139 125.062 62.2337 123.414C57.8882 115.95 53.5767 108.465 49.2355 100.997C48.8204 101.141 48.3926 101.276 47.9522 101.339ZM245.246 102.336C245.271 104.055 245.263 105.775 245.254 107.49C246.584 108.491 247.927 109.488 249.341 110.366C247.927 107.718 246.673 104.972 245.246 102.336ZM242.565 105.373C242.815 105.585 243.069 105.796 243.327 106.003C243.306 105.158 243.34 104.313 243.323 103.468C243.031 104.085 242.861 104.752 242.565 105.373ZM21.9558 111.646C21.96 112.487 21.9643 113.327 21.9558 114.168C23.1629 115.874 24.5436 117.454 26.0768 118.878C29.2914 113.805 32.5398 108.757 35.7672 103.696C31.1634 106.341 26.5596 108.993 21.9558 111.646ZM58.8412 103.696C62.0558 108.761 65.3127 113.796 68.5146 118.869C69.7852 117.691 70.9669 116.407 71.9961 115.013C72.0426 114.252 71.9876 113.492 72.0215 112.736C71.8393 112.757 71.4751 112.803 71.293 112.829C71.437 112.271 71.8139 111.823 72.0342 111.295C67.6337 108.761 63.2332 106.239 58.8412 103.696ZM270.383 105.53C270.488 112.554 270.51 119.583 270.666 126.603C271.191 127.74 271.674 128.906 271.992 130.122C271.547 130.126 271.107 130.122 270.671 130.105C270.751 132.648 270.7 135.187 270.802 137.73C272.212 134.883 273.512 131.955 274.885 129.079C278.048 122.337 281.191 115.587 284.372 108.854C280.636 107.773 276.943 106.527 273.385 104.951C273.157 104.879 272.945 104.676 272.695 104.769C271.924 105.031 271.158 105.293 270.383 105.53ZM259.557 105.124C260.989 109.45 262.39 113.792 263.775 118.134C265.304 118.806 266.854 119.431 268.417 120.022C268.434 120.563 268.519 121.1 268.667 121.623C268.578 119.148 268.608 116.673 268.553 114.197C268.604 111.426 268.409 108.655 268.481 105.889C265.486 106.231 262.471 105.804 259.557 105.124ZM258.384 107.988C257.689 110.163 256.94 112.322 256.194 114.48C257.901 115.393 259.625 116.297 261.408 117.057C260.434 114.104 259.485 111.143 258.528 108.187C258.494 108.136 258.422 108.039 258.384 107.988ZM286.472 109.424C287.12 110.848 287.667 112.313 288.268 113.758C291.216 120.935 294.092 128.145 297.078 135.301C297.031 132.103 297.073 128.906 297.057 125.708C297.04 121.019 296.997 116.326 297.006 111.638C293.469 111.025 289.95 110.311 286.472 109.424ZM11.5073 111.025C11.4988 112.377 11.5242 113.733 11.4988 115.089C14.8828 115.118 18.2711 115.089 21.6551 115.101C21.6466 113.758 21.6424 112.415 21.6593 111.072C21.4857 110.941 21.312 110.818 21.1384 110.687C20.8927 110.907 20.6217 111.257 20.2405 111.135C19.9821 111.097 19.8297 110.856 19.6348 110.708C19.3214 111.072 18.7539 111.342 18.377 110.898C18.1017 110.497 17.8306 111.097 17.5045 111.101C17.1699 111.16 16.9539 110.865 16.704 110.704C16.4711 110.89 16.2466 111.148 15.9205 111.143C15.5986 111.156 15.3953 110.882 15.1708 110.704C14.9675 110.873 14.7812 111.093 14.5059 111.148C14.1543 111.165 13.9045 110.907 13.6588 110.7C13.4216 110.907 13.1887 111.186 12.8372 111.16C12.5153 111.165 12.3332 110.877 12.1129 110.691C11.9139 110.801 11.7106 110.915 11.5073 111.025ZM298.984 135.626C302.291 128.128 305.481 120.567 308.767 113.061C305.497 112.795 302.224 112.44 298.984 111.904C298.971 119.811 298.979 127.719 298.984 135.626ZM72.3264 112.656C72.3476 114.02 72.3349 115.384 72.3391 116.749C75.7062 116.74 79.0775 116.728 82.4488 116.753C82.4488 115.393 82.4446 114.028 82.453 112.668C82.2963 112.546 82.1396 112.428 81.9829 112.309C81.7542 112.516 81.5001 112.689 81.2333 112.841C80.941 112.719 80.67 112.554 80.4497 112.33C80.0643 112.863 79.3359 112.833 78.9462 112.326C78.7429 112.508 78.5269 112.702 78.2431 112.736C77.9678 112.685 77.7603 112.499 77.5486 112.339C77.3029 112.499 77.0742 112.74 76.7565 112.744C76.4347 112.765 76.2187 112.512 75.9857 112.339C75.6045 112.846 74.8718 112.85 74.4949 112.33C74.245 112.554 73.9528 112.727 73.6478 112.858C73.3895 112.711 73.1438 112.537 72.9405 112.322C72.7372 112.432 72.5339 112.542 72.3264 112.656ZM310.859 113.226C313.595 120.022 316.336 126.81 319.072 133.603C319.22 133.898 319.216 134.312 319.516 134.507C319.139 127.562 318.851 120.605 318.538 113.657C315.976 113.53 313.409 113.467 310.859 113.226ZM272.149 139.449C276.219 139.457 280.285 139.461 284.355 139.449C284.342 130.785 284.346 122.126 284.351 113.462C280.259 122.113 276.24 130.798 272.149 139.449ZM320.474 113.699C320.812 121.04 321.147 128.378 321.49 135.715C324.429 128.39 327.297 121.032 330.228 113.699C326.979 113.872 323.722 113.741 320.474 113.699ZM286.273 114.126C286.295 122.569 286.282 131.018 286.278 139.461C289.734 139.449 293.185 139.453 296.641 139.457C294.392 133.953 292.152 128.449 289.907 122.945C288.688 120.014 287.552 117.028 286.273 114.126ZM308.327 118.949C305.375 125.788 302.414 132.623 299.466 139.461C302.575 139.453 305.684 139.449 308.797 139.461C308.801 132.289 308.784 125.121 308.805 117.953C308.564 118.24 308.475 118.616 308.327 118.949ZM310.766 139.457C313.625 139.453 316.48 139.445 319.334 139.461C317.725 135.44 316.098 131.423 314.476 127.406C313.261 124.314 311.948 121.264 310.792 118.155C310.737 125.256 310.783 132.357 310.766 139.457ZM70.8229 122.477C71.3099 123.216 71.7673 123.976 72.2671 124.711C72.2629 123.537 72.2629 122.367 72.2629 121.192C71.7377 121.564 71.3015 122.046 70.8229 122.477ZM74.1815 122.02C74.2111 123.925 74.1476 125.835 74.1984 127.74C74.4441 128.175 74.7532 128.576 74.9862 129.024C75.2403 128.737 75.1852 128.314 75.2911 127.964C75.6681 126.291 75.9815 124.597 76.4092 122.933C75.6808 122.586 74.9184 122.333 74.1815 122.02ZM26.1615 124.47C23.7346 128.365 21.2188 132.205 18.7708 136.091C19.1435 136.078 19.512 136.07 19.8847 136.07C38.5243 136.082 57.1724 136.057 75.8163 136.082C73.3471 132.213 70.8568 128.348 68.4003 124.466C63.7711 127.875 58.3287 130.211 52.6237 131.039C52.5263 131.93 52.5221 132.83 52.395 133.721C50.6246 134.38 48.8882 135.128 47.1305 135.82C45.3517 135.132 43.5983 134.376 41.811 133.717C41.7008 132.821 41.6797 131.917 41.6161 131.018C39.1724 130.566 36.7498 129.962 34.4415 129.037C31.481 127.909 28.7238 126.316 26.1615 124.47ZM42.0905 125.15C42.0778 126.506 42.0863 127.866 42.082 129.222C45.4533 129.201 48.8289 129.214 52.1959 129.218C52.1917 127.883 52.1917 126.549 52.2087 125.218C52.0308 125.083 51.8529 124.952 51.675 124.817C51.4548 125.024 51.2218 125.273 50.8915 125.281C50.5908 125.248 50.3748 125.024 50.1503 124.842C49.9301 125.032 49.7056 125.243 49.4006 125.273C49.0915 125.248 48.8839 125.011 48.6595 124.825C48.4011 125.112 48.058 125.264 47.6684 125.193C47.5371 125.07 47.4058 124.943 47.2787 124.821C47.0204 125.007 46.7705 125.226 46.4486 125.273C46.1352 125.26 45.9234 125.024 45.7117 124.834C45.4703 125.019 45.2331 125.273 44.9027 125.269C44.6105 125.226 44.4072 125.007 44.1912 124.834C43.9328 125.041 43.6703 125.332 43.3018 125.286C43.0138 125.243 42.8444 124.994 42.6453 124.812C42.4632 124.926 42.243 124.994 42.0905 125.15Z" fill="#004AAD"/>
</g>
<path d="M41.5612 59.2592C41.7476 59.1578 41.9339 59.0607 42.1203 58.9593C42.349 59.1367 42.5523 59.3859 42.8572 59.4197C43.2003 59.4113 43.4459 59.1578 43.6958 58.9593C43.9033 59.1029 44.0812 59.3606 44.3565 59.3732C44.7038 59.445 44.9495 59.1578 45.1909 58.9635C45.4111 59.1156 45.6102 59.3901 45.9109 59.3732C46.2539 59.4281 46.4869 59.1198 46.7537 58.9551C46.9612 59.1325 47.173 59.3268 47.4525 59.3775C47.7278 59.3268 47.9311 59.124 48.1641 58.9931C48.4521 59.2085 48.7528 59.4366 49.1382 59.3817C49.3118 59.2423 49.4855 59.0987 49.6634 58.9551C49.8158 59.0944 49.9641 59.2296 50.1165 59.369C50.3071 59.3732 50.502 59.3732 50.6925 59.3775C50.8493 59.2338 51.0102 59.086 51.1669 58.9424C51.2897 59.0226 51.5311 59.1874 51.654 59.2676C51.7133 60.6278 51.6455 61.9879 51.6794 63.3481C48.3038 63.3438 44.9283 63.3312 41.5527 63.3523C41.5654 61.9879 41.5612 60.6236 41.5612 59.2592Z" fill="white"/>
<path d="M11.1471 77.0049C11.3335 76.8908 11.5199 76.7768 11.7062 76.6627C11.9434 76.8571 12.1594 77.1316 12.4982 77.1316C12.8201 77.1189 13.053 76.8866 13.2648 76.6712C13.5062 76.8359 13.7137 77.1105 14.0356 77.1063C14.349 77.1316 14.5608 76.8571 14.7768 76.6796C15.0182 76.8444 15.2427 77.1401 15.5688 77.1063C15.8907 77.1105 16.0982 76.8402 16.3354 76.6627C16.5811 76.8317 16.7971 77.1358 17.1359 77.0683C17.3942 77.0429 17.5594 76.8064 17.7585 76.6712C17.9872 76.8444 18.1947 77.1189 18.5166 77.1105C18.83 77.1063 19.0375 76.8402 19.2747 76.6754C19.4526 76.8402 19.6093 77.0683 19.8761 77.102C20.2531 77.233 20.5241 76.8697 20.7698 76.6543C20.935 76.7895 21.134 76.8908 21.2695 77.0598C21.3034 78.3988 21.2357 79.7336 21.2823 81.0727C17.9025 81.0558 14.5227 81.0811 11.1387 81.06C11.1641 79.7083 11.1556 78.3566 11.1471 77.0049Z" fill="white"/>
<path d="M81.2081 77.1942C81.5554 77.2618 81.8053 76.9703 82.0424 76.7633C82.2669 76.945 82.466 77.2406 82.7878 77.2238C83.1224 77.2491 83.3427 76.9534 83.5629 76.7549C83.7281 76.8858 83.889 77.021 84.0542 77.1519C84.0457 78.4952 84.0584 79.8427 84.05 81.1859C80.6829 81.169 77.3158 81.1648 73.9445 81.1901C73.9318 79.83 73.953 78.4698 73.936 77.1097C74.0673 77.0294 74.3257 76.8689 74.457 76.7887C74.7069 77.1182 74.9398 77.4561 75.16 77.8067C75.4099 77.4138 75.6852 77.0379 76.0749 76.7633C76.2739 76.9196 76.4518 77.1646 76.7271 77.19C77.0829 77.266 77.337 76.9745 77.5996 76.7887C77.9808 77.3547 78.7389 77.2744 79.1328 76.7718C79.3403 76.9534 79.5732 77.1097 79.8231 77.2322C80.0815 77.1182 80.3314 76.9788 80.5389 76.7802C80.7422 76.9323 80.9285 77.1731 81.2081 77.1942Z" fill="white"/>
<path d="M11.5075 111.024C11.7108 110.915 11.9141 110.801 12.1131 110.691C12.3334 110.877 12.5155 111.164 12.8374 111.16C13.1889 111.185 13.4219 110.906 13.659 110.699C13.9047 110.906 14.1546 111.164 14.5061 111.147C14.7814 111.092 14.9677 110.872 15.171 110.703C15.3955 110.881 15.5988 111.155 15.9207 111.143C16.2468 111.147 16.4713 110.889 16.7042 110.703C16.9541 110.864 17.1701 111.16 17.5047 111.1C17.8308 111.096 18.1019 110.496 18.3772 110.898C18.7541 111.345 19.3217 111.071 19.6351 110.708C19.8299 110.855 19.9824 111.096 20.2407 111.134C20.6219 111.257 20.893 110.906 21.1386 110.687C21.3123 110.817 21.4859 110.94 21.6595 111.071C21.6426 112.414 21.6468 113.757 21.6553 115.101C18.2713 115.088 14.883 115.118 11.499 115.088C11.5244 113.736 11.499 112.376 11.5075 111.024Z" fill="white"/>
<path d="M72.3267 112.655C72.5342 112.541 72.7375 112.431 72.9408 112.321C73.1441 112.537 73.3897 112.71 73.6481 112.858C73.953 112.727 74.2453 112.554 74.4951 112.33C74.8721 112.849 75.6048 112.845 75.986 112.338C76.2189 112.511 76.4349 112.765 76.7568 112.744C77.0744 112.739 77.3032 112.499 77.5488 112.338C77.7606 112.499 77.9681 112.685 78.2434 112.735C78.5272 112.701 78.7432 112.507 78.9465 112.325C79.3361 112.832 80.0646 112.862 80.45 112.33C80.6702 112.554 80.9413 112.718 81.2335 112.841C81.5004 112.693 81.7545 112.516 81.9832 112.309C82.1399 112.427 82.2966 112.545 82.4533 112.668C82.4448 114.028 82.4491 115.392 82.4491 116.752C79.0778 116.727 75.7064 116.74 72.3394 116.748C72.3351 115.384 72.3478 114.019 72.3267 112.655Z" fill="white"/>
<path d="M42.0988 125.15C42.247 124.994 42.4715 124.927 42.6494 124.812C42.8485 124.994 43.0221 125.243 43.3101 125.286C43.6786 125.332 43.9412 125.041 44.1995 124.834C44.4155 125.007 44.6146 125.226 44.9068 125.269C45.2372 125.273 45.4786 125.019 45.7158 124.834C45.9318 125.024 46.1435 125.26 46.4569 125.273C46.7788 125.226 47.0287 125.007 47.2828 124.821C47.4141 124.943 47.5412 125.07 47.6725 125.193C48.0664 125.264 48.4094 125.112 48.6678 124.825C48.888 125.011 49.0955 125.248 49.409 125.273C49.7139 125.243 49.9384 125.032 50.1586 124.842C50.3831 125.024 50.5948 125.248 50.8998 125.281C51.2301 125.273 51.4588 125.024 51.6791 124.817C51.857 124.952 52.0391 125.083 52.217 125.218C52.2 126.549 52.2 127.883 52.2043 129.218C48.833 129.214 45.4616 129.201 42.0903 129.222C42.0946 127.866 42.0861 126.506 42.0988 125.15Z" fill="white"/>
<path d="M26.5895 144.235H34.3359L37.559 171.315H31.5237L30.9985 165.499H24.3999L22.3161 171.315H16.2808L26.5895 144.235ZM29.6813 150.499L26.1067 160.645H30.5495L29.6813 150.499ZM73.7032 157.253L73.5676 158.36C73.1738 161.57 72.441 164.122 71.3737 166.014C70.3107 167.907 68.8876 169.267 67.1088 170.09C65.33 170.906 63.1318 171.315 60.5144 171.315H52.1454L55.6819 144.303H63.5977C66.194 144.303 68.3074 144.717 69.9422 145.553C71.5728 146.381 72.7079 147.741 73.3389 149.638C73.9785 151.53 74.1013 154.069 73.7032 157.253ZM58.3925 166.47H60.5822C62.1577 166.47 63.4325 166.196 64.4066 165.642C65.3765 165.085 66.1347 164.211 66.6768 163.019C67.2189 161.832 67.6043 160.278 67.8373 158.36L67.9728 157.253C68.3031 154.575 68.1591 152.561 67.5408 151.2C66.9309 149.836 65.5248 149.156 63.3266 149.156H60.6838L58.3925 166.47ZM100.373 171.383H92.6223L89.395 144.303H95.4388L97.2769 165.119L104.646 144.303H110.682L100.373 171.383ZM125.26 144.303H141.824L141.206 149.156H130.262L129.465 155.108H138.673L138.046 159.961H128.839L127.975 166.47H138.91L138.283 171.315H121.723L125.26 144.303ZM157.308 144.303H163.183L169.709 161.068L170.294 155.454L171.755 144.303H177.138L173.593 171.315H167.727L161.201 154.559L160.612 160.164L159.155 171.315H153.772L157.308 144.303ZM203.075 149.156L200.157 171.315H194.528L197.446 149.156H191.199L191.826 144.303H209.983L209.356 149.156H203.075ZM233.938 143.851C237.462 143.851 240.007 144.911 241.578 147.023C243.154 149.131 243.641 152.544 243.035 157.253L242.9 158.36C242.506 161.478 241.845 164.025 240.918 165.997C239.994 167.97 238.753 169.423 237.186 170.361C235.628 171.294 233.667 171.763 231.303 171.763C227.78 171.763 225.239 170.711 223.671 168.604C222.113 166.487 221.622 163.074 222.206 158.36L222.342 157.253C222.735 154.115 223.396 151.564 224.315 149.604C225.243 147.64 226.492 146.191 228.063 145.257C229.639 144.319 231.6 143.851 233.938 143.851ZM231.27 166.918H231.617C233.328 166.918 234.594 166.175 235.416 164.688C236.238 163.193 236.826 161.085 237.169 158.36L237.305 157.253C237.656 154.533 237.623 152.425 237.203 150.939C236.784 149.443 235.708 148.696 233.972 148.696H233.624C231.913 148.696 230.643 149.443 229.821 150.939C228.999 152.425 228.419 154.533 228.072 157.253L227.928 158.36C227.585 161.085 227.619 163.193 228.038 164.688C228.457 166.175 229.533 166.918 231.27 166.918ZM266.575 171.763C262.895 171.763 260.383 170.999 259.041 169.465C257.698 167.923 257.215 165.689 257.579 162.757L260.015 144.303H265.643L263.242 162.588C263.056 163.999 263.191 165.072 263.644 165.811C264.093 166.551 265.118 166.918 266.719 166.918C268.312 166.918 269.459 166.559 270.154 165.845C270.849 165.127 271.289 164.046 271.475 162.588L273.868 144.303H279.497L277.062 162.757C276.808 164.696 276.329 166.339 275.622 167.678C274.915 169.017 273.843 170.031 272.407 170.724C270.971 171.417 269.027 171.763 266.575 171.763ZM298.73 161.617L297.442 171.315H291.818L295.354 144.303H304.494C305.697 144.303 306.832 144.429 307.895 144.683C308.962 144.936 309.89 145.375 310.673 146.001C311.461 146.622 312.024 147.475 312.372 148.56C312.719 149.646 312.791 151.019 312.583 152.679L312.482 153.481C312.181 155.699 311.55 157.38 310.589 158.521C309.627 159.661 308.509 160.464 307.234 160.924L310.114 171.315H304.214L301.813 161.617H298.73ZM299.314 156.772H302.859C303.367 156.772 303.905 156.692 304.469 156.527C305.04 156.362 305.544 156.033 305.985 155.539C306.425 155.04 306.705 154.309 306.819 153.338L306.887 152.822C307.027 151.809 306.938 151.036 306.62 150.508C306.311 149.971 305.896 149.612 305.375 149.435C304.854 149.249 304.342 149.156 303.833 149.156H300.356L299.314 156.772Z" stroke="#DBE7F5" stroke-width="1.22781"/>
<defs>
<linearGradient id="paint0_linear_692_4640" x1="0.00101023" y1="85.3904" x2="330.714" y2="85.3904" gradientUnits="userSpaceOnUse">
<stop stop-color="#8C52FF"/>
<stop offset="0.00390625" stop-color="#8C53FF"/>
<stop offset="0.0078125" stop-color="#8C53FF"/>
<stop offset="0.0117188" stop-color="#8B54FF"/>
<stop offset="0.015625" stop-color="#8B54FF"/>
<stop offset="0.0195313" stop-color="#8B55FF"/>
<stop offset="0.0234375" stop-color="#8B55FE"/>
<stop offset="0.0273438" stop-color="#8B56FE"/>
<stop offset="0.03125" stop-color="#8A57FE"/>
<stop offset="0.0351562" stop-color="#8A57FE"/>
<stop offset="0.0390625" stop-color="#8A58FE"/>
<stop offset="0.0429688" stop-color="#8A58FE"/>
<stop offset="0.046875" stop-color="#8A59FE"/>
<stop offset="0.0507812" stop-color="#8A59FE"/>
<stop offset="0.0546875" stop-color="#895AFE"/>
<stop offset="0.0585938" stop-color="#895AFE"/>
<stop offset="0.0625" stop-color="#895BFD"/>
<stop offset="0.0664062" stop-color="#895CFD"/>
<stop offset="0.0703125" stop-color="#895CFD"/>
<stop offset="0.0742188" stop-color="#885DFD"/>
<stop offset="0.078125" stop-color="#885DFD"/>
<stop offset="0.0820313" stop-color="#885EFD"/>
<stop offset="0.0859375" stop-color="#885EFD"/>
<stop offset="0.0898438" stop-color="#885FFD"/>
<stop offset="0.09375" stop-color="#875FFD"/>
<stop offset="0.0976563" stop-color="#8760FD"/>
<stop offset="0.101563" stop-color="#8761FC"/>
<stop offset="0.105469" stop-color="#8761FC"/>
<stop offset="0.109375" stop-color="#8762FC"/>
<stop offset="0.113281" stop-color="#8762FC"/>
<stop offset="0.117188" stop-color="#8663FC"/>
<stop offset="0.121094" stop-color="#8663FC"/>
<stop offset="0.125" stop-color="#8664FC"/>
<stop offset="0.128906" stop-color="#8665FC"/>
<stop offset="0.132812" stop-color="#8665FC"/>
<stop offset="0.136719" stop-color="#8566FC"/>
<stop offset="0.140625" stop-color="#8566FB"/>
<stop offset="0.144531" stop-color="#8567FB"/>
<stop offset="0.148438" stop-color="#8567FB"/>
<stop offset="0.152344" stop-color="#8568FB"/>
<stop offset="0.15625" stop-color="#8468FB"/>
<stop offset="0.160156" stop-color="#8469FB"/>
<stop offset="0.164063" stop-color="#846AFB"/>
<stop offset="0.167969" stop-color="#846AFB"/>
<stop offset="0.171875" stop-color="#846BFB"/>
<stop offset="0.175781" stop-color="#846BFB"/>
<stop offset="0.179687" stop-color="#836CFB"/>
<stop offset="0.183594" stop-color="#836CFA"/>
<stop offset="0.1875" stop-color="#836DFA"/>
<stop offset="0.191406" stop-color="#836DFA"/>
<stop offset="0.195312" stop-color="#836EFA"/>
<stop offset="0.199219" stop-color="#826FFA"/>
<stop offset="0.203125" stop-color="#826FFA"/>
<stop offset="0.207031" stop-color="#8270FA"/>
<stop offset="0.210937" stop-color="#8270FA"/>
<stop offset="0.214844" stop-color="#8271FA"/>
<stop offset="0.21875" stop-color="#8271FA"/>
<stop offset="0.222656" stop-color="#8172F9"/>
<stop offset="0.226562" stop-color="#8172F9"/>
<stop offset="0.230469" stop-color="#8173F9"/>
<stop offset="0.234375" stop-color="#8174F9"/>
<stop offset="0.238281" stop-color="#8174F9"/>
<stop offset="0.242187" stop-color="#8075F9"/>
<stop offset="0.246094" stop-color="#8075F9"/>
<stop offset="0.25" stop-color="#8076F9"/>
<stop offset="0.253906" stop-color="#8076F9"/>
<stop offset="0.257812" stop-color="#8077F9"/>
<stop offset="0.261719" stop-color="#7F77F8"/>
<stop offset="0.265625" stop-color="#7F78F8"/>
<stop offset="0.269531" stop-color="#7F79F8"/>
<stop offset="0.273438" stop-color="#7F79F8"/>
<stop offset="0.277344" stop-color="#7F7AF8"/>
<stop offset="0.28125" stop-color="#7F7AF8"/>
<stop offset="0.285156" stop-color="#7E7BF8"/>
<stop offset="0.289062" stop-color="#7E7BF8"/>
<stop offset="0.292969" stop-color="#7E7CF8"/>
<stop offset="0.296875" stop-color="#7E7DF8"/>
<stop offset="0.300781" stop-color="#7E7DF7"/>
<stop offset="0.304687" stop-color="#7D7EF7"/>
<stop offset="0.308594" stop-color="#7D7EF7"/>
<stop offset="0.3125" stop-color="#7D7FF7"/>
<stop offset="0.316406" stop-color="#7D7FF7"/>
<stop offset="0.320312" stop-color="#7D80F7"/>
<stop offset="0.324219" stop-color="#7C80F7"/>
<stop offset="0.328125" stop-color="#7C81F7"/>
<stop offset="0.332031" stop-color="#7C82F7"/>
<stop offset="0.335938" stop-color="#7C82F7"/>
<stop offset="0.339844" stop-color="#7C83F7"/>
<stop offset="0.34375" stop-color="#7C83F6"/>
<stop offset="0.347656" stop-color="#7B84F6"/>
<stop offset="0.351562" stop-color="#7B84F6"/>
<stop offset="0.355469" stop-color="#7B85F6"/>
<stop offset="0.359375" stop-color="#7B85F6"/>
<stop offset="0.363281" stop-color="#7B86F6"/>
<stop offset="0.367188" stop-color="#7A87F6"/>
<stop offset="0.371094" stop-color="#7A87F6"/>
<stop offset="0.375" stop-color="#7A88F6"/>
<stop offset="0.378906" stop-color="#7A88F6"/>
<stop offset="0.382812" stop-color="#7A89F5"/>
<stop offset="0.386719" stop-color="#7989F5"/>
<stop offset="0.390625" stop-color="#798AF5"/>
<stop offset="0.394531" stop-color="#798AF5"/>
<stop offset="0.398437" stop-color="#798BF5"/>
<stop offset="0.402344" stop-color="#798CF5"/>
<stop offset="0.40625" stop-color="#798CF5"/>
<stop offset="0.410156" stop-color="#788DF5"/>
<stop offset="0.414062" stop-color="#788DF5"/>
<stop offset="0.417969" stop-color="#788EF5"/>
<stop offset="0.421875" stop-color="#788EF4"/>
<stop offset="0.425781" stop-color="#788FF4"/>
<stop offset="0.429688" stop-color="#778FF4"/>
<stop offset="0.433594" stop-color="#7790F4"/>
<stop offset="0.4375" stop-color="#7791F4"/>
<stop offset="0.441406" stop-color="#7791F4"/>
<stop offset="0.445313" stop-color="#7792F4"/>
<stop offset="0.449219" stop-color="#7692F4"/>
<stop offset="0.453125" stop-color="#7693F4"/>
<stop offset="0.457031" stop-color="#7693F4"/>
<stop offset="0.460938" stop-color="#7694F3"/>
<stop offset="0.464844" stop-color="#7694F3"/>
<stop offset="0.46875" stop-color="#7695F3"/>
<stop offset="0.472656" stop-color="#7596F3"/>
<stop offset="0.476562" stop-color="#7596F3"/>
<stop offset="0.480469" stop-color="#7597F3"/>
<stop offset="0.484375" stop-color="#7597F3"/>
<stop offset="0.488281" stop-color="#7598F3"/>
<stop offset="0.492188" stop-color="#7498F3"/>
<stop offset="0.496094" stop-color="#7499F3"/>
<stop offset="0.5" stop-color="#749AF3"/>
<stop offset="0.503906" stop-color="#749AF2"/>
<stop offset="0.507813" stop-color="#749BF2"/>
<stop offset="0.511719" stop-color="#739BF2"/>
<stop offset="0.515625" stop-color="#739CF2"/>
<stop offset="0.519531" stop-color="#739CF2"/>
<stop offset="0.523438" stop-color="#739DF2"/>
<stop offset="0.527344" stop-color="#739DF2"/>
<stop offset="0.53125" stop-color="#739EF2"/>
<stop offset="0.535156" stop-color="#729FF2"/>
<stop offset="0.539062" stop-color="#729FF2"/>
<stop offset="0.542969" stop-color="#72A0F1"/>
<stop offset="0.546875" stop-color="#72A0F1"/>
<stop offset="0.550781" stop-color="#72A1F1"/>
<stop offset="0.554688" stop-color="#71A1F1"/>
<stop offset="0.558594" stop-color="#71A2F1"/>
<stop offset="0.5625" stop-color="#71A2F1"/>
<stop offset="0.566406" stop-color="#71A3F1"/>
<stop offset="0.570312" stop-color="#71A4F1"/>
<stop offset="0.574219" stop-color="#70A4F1"/>
<stop offset="0.578125" stop-color="#70A5F1"/>
<stop offset="0.582031" stop-color="#70A5F0"/>
<stop offset="0.585938" stop-color="#70A6F0"/>
<stop offset="0.589844" stop-color="#70A6F0"/>
<stop offset="0.59375" stop-color="#70A7F0"/>
<stop offset="0.597656" stop-color="#6FA7F0"/>
<stop offset="0.601563" stop-color="#6FA8F0"/>
<stop offset="0.605469" stop-color="#6FA9F0"/>
<stop offset="0.609375" stop-color="#6FA9F0"/>
<stop offset="0.613281" stop-color="#6FAAF0"/>
<stop offset="0.617188" stop-color="#6EAAF0"/>
<stop offset="0.621094" stop-color="#6EABEF"/>
<stop offset="0.625" stop-color="#6EABEF"/>
<stop offset="0.628906" stop-color="#6EACEF"/>
<stop offset="0.632813" stop-color="#6EACEF"/>
<stop offset="0.636719" stop-color="#6DADEF"/>
<stop offset="0.640625" stop-color="#6DAEEF"/>
<stop offset="0.644531" stop-color="#6DAEEF"/>
<stop offset="0.648438" stop-color="#6DAFEF"/>
<stop offset="0.652344" stop-color="#6DAFEF"/>
<stop offset="0.65625" stop-color="#6DB0EF"/>
<stop offset="0.660156" stop-color="#6CB0EF"/>
<stop offset="0.664063" stop-color="#6CB1EE"/>
<stop offset="0.667969" stop-color="#6CB1EE"/>
<stop offset="0.671875" stop-color="#6CB2EE"/>
<stop offset="0.675781" stop-color="#6CB3EE"/>
<stop offset="0.679688" stop-color="#6BB3EE"/>
<stop offset="0.683594" stop-color="#6BB4EE"/>
<stop offset="0.6875" stop-color="#6BB4EE"/>
<stop offset="0.691406" stop-color="#6BB5EE"/>
<stop offset="0.695313" stop-color="#6BB5EE"/>
<stop offset="0.699219" stop-color="#6AB6EE"/>
<stop offset="0.703125" stop-color="#6AB7ED"/>
<stop offset="0.707031" stop-color="#6AB7ED"/>
<stop offset="0.710938" stop-color="#6AB8ED"/>
<stop offset="0.714844" stop-color="#6AB8ED"/>
<stop offset="0.71875" stop-color="#6AB9ED"/>
<stop offset="0.722656" stop-color="#69B9ED"/>
<stop offset="0.726562" stop-color="#69BAED"/>
<stop offset="0.730469" stop-color="#69BAED"/>
<stop offset="0.734375" stop-color="#69BBED"/>
<stop offset="0.738281" stop-color="#69BCED"/>
<stop offset="0.742188" stop-color="#68BCEC"/>
<stop offset="0.746094" stop-color="#68BDEC"/>
<stop offset="0.75" stop-color="#68BDEC"/>
<stop offset="0.753906" stop-color="#68BEEC"/>
<stop offset="0.757813" stop-color="#68BEEC"/>
<stop offset="0.761719" stop-color="#67BFEC"/>
<stop offset="0.765625" stop-color="#67BFEC"/>
<stop offset="0.769531" stop-color="#67C0EC"/>
<stop offset="0.773438" stop-color="#67C1EC"/>
<stop offset="0.777344" stop-color="#67C1EC"/>
<stop offset="0.78125" stop-color="#67C2EB"/>
<stop offset="0.785156" stop-color="#66C2EB"/>
<stop offset="0.789063" stop-color="#66C3EB"/>
<stop offset="0.792969" stop-color="#66C3EB"/>
<stop offset="0.796875" stop-color="#66C4EB"/>
<stop offset="0.800781" stop-color="#66C4EB"/>
<stop offset="0.804688" stop-color="#65C5EB"/>
<stop offset="0.808594" stop-color="#65C6EB"/>
<stop offset="0.8125" stop-color="#65C6EB"/>
<stop offset="0.816406" stop-color="#65C7EB"/>
<stop offset="0.820313" stop-color="#65C7EA"/>
<stop offset="0.824219" stop-color="#64C8EA"/>
<stop offset="0.828125" stop-color="#64C8EA"/>
<stop offset="0.832031" stop-color="#64C9EA"/>
<stop offset="0.835938" stop-color="#64C9EA"/>
<stop offset="0.839844" stop-color="#64CAEA"/>
<stop offset="0.84375" stop-color="#64CBEA"/>
<stop offset="0.847656" stop-color="#63CBEA"/>
<stop offset="0.851562" stop-color="#63CCEA"/>
<stop offset="0.855469" stop-color="#63CCEA"/>
<stop offset="0.859375" stop-color="#63CDEA"/>
<stop offset="0.863281" stop-color="#63CDE9"/>
<stop offset="0.867188" stop-color="#62CEE9"/>
<stop offset="0.871094" stop-color="#62CEE9"/>
<stop offset="0.875" stop-color="#62CFE9"/>
<stop offset="0.878906" stop-color="#62D0E9"/>
<stop offset="0.882812" stop-color="#62D0E9"/>
<stop offset="0.886719" stop-color="#61D1E9"/>
<stop offset="0.890625" stop-color="#61D1E9"/>
<stop offset="0.894531" stop-color="#61D2E9"/>
<stop offset="0.898438" stop-color="#61D2E9"/>
<stop offset="0.902344" stop-color="#61D3E8"/>
<stop offset="0.90625" stop-color="#61D4E8"/>
<stop offset="0.910156" stop-color="#60D4E8"/>
<stop offset="0.914063" stop-color="#60D5E8"/>
<stop offset="0.917969" stop-color="#60D5E8"/>
<stop offset="0.921875" stop-color="#60D6E8"/>
<stop offset="0.925781" stop-color="#60D6E8"/>
<stop offset="0.929688" stop-color="#5FD7E8"/>
<stop offset="0.933594" stop-color="#5FD7E8"/>
<stop offset="0.9375" stop-color="#5FD8E8"/>
<stop offset="0.941406" stop-color="#5FD9E7"/>
<stop offset="0.945312" stop-color="#5FD9E7"/>
<stop offset="0.949219" stop-color="#5EDAE7"/>
<stop offset="0.953125" stop-color="#5EDAE7"/>
<stop offset="0.957031" stop-color="#5EDBE7"/>
<stop offset="0.960937" stop-color="#5EDBE7"/>
<stop offset="0.964844" stop-color="#5EDCE7"/>
<stop offset="0.96875" stop-color="#5EDCE7"/>
<stop offset="0.972656" stop-color="#5DDDE7"/>
<stop offset="0.976562" stop-color="#5DDEE7"/>
<stop offset="0.980469" stop-color="#5DDEE6"/>
<stop offset="0.984375" stop-color="#5DDFE6"/>
<stop offset="0.988281" stop-color="#5DDFE6"/>
<stop offset="0.992188" stop-color="#5CE0E6"/>
<stop offset="0.996094" stop-color="#5CE0E6"/>
<stop offset="1" stop-color="#5CE1E6"/>
</linearGradient>
</defs>
</svg>
